<?xml version="1.0" encoding="UTF-8"?>
<svg id="favicon-app" xmlns="http://www.w3.org/2000/svg" width="128" height="128" viewBox="0 0 128 128">
  <rect width="128" height="128" fill="#fff"/>
  <path id="yellow" d="M9.09,43.98v30.05h109.82v-30.05H9.09Z" fill="#f9d564"/>
  <path id="black" d="M118.91,93.88v15.03h-61.5v-15.03h61.5ZM9.09,100.32c0-10.06,8.15-18.21,18.21-18.21s18.21,8.15,18.21,18.21-8.15,18.21-18.21,18.21-18.21-8.15-18.21-18.21ZM118.68,9.09H9.09v15.03h109.59v-15.03ZM44.49,67.59c0-7.56,5.34-12.24,15.2-12.98l11.5-.9v-.66c0-4.03-2.46-6.16-6.98-6.16-5.34,0-8.22,2.05-8.22,5.75h-10.52c0-9.28,7.64-15.36,19.39-15.36s18.65,6.65,18.65,18.4v23.99h-11.17l-.82-5.42c-1.32,3.78-6.74,6.49-12.9,6.49-8.71,0-14.13-5.09-14.13-13.15ZM71.27,64.3v-2.22l-6.41.58c-5.5.49-7.48,1.72-7.48,4.35,0,2.96,1.81,4.35,5.67,4.35,4.85,0,8.22-2.38,8.22-7.06Z" fill="#212529"/>
</svg>